<?xml version="1.0" standalone="no"?>
<!DOCTYPE svg PUBLIC "-//W3C//DTD SVG 20010904//EN"
 "http://www.w3.org/TR/2001/REC-SVG-20010904/DTD/svg10.dtd">
<svg version="1.0" xmlns="http://www.w3.org/2000/svg"
 width="787.000000pt" height="317.000000pt" viewBox="0 0 787.000000 317.000000"
 preserveAspectRatio="xMidYMid meet">
<metadata>
Created by potrace 1.16, written by Peter Selinger 2001-2019
</metadata>
<g transform="translate(0.000000,317.000000) scale(0.100000,-0.100000)"
fill="#000000" stroke="none">
<path d="M1825 2427 c-5 -12 -14 -16 -29 -12 -11 2 -15 2 -8 -1 35 -16 53
-141 30 -214 -12 -39 -45 -80 -64 -80 -6 0 -14 -6 -17 -14 -3 -8 -36 -31 -72
-51 -57 -32 -73 -37 -113 -33 -43 4 -145 55 -163 81 -4 5 -17 14 -30 21 -33
16 -58 71 -59 129 0 26 -4 47 -10 47 -5 0 -6 7 -3 17 4 11 3 14 -5 9 -7 -4
-12 -15 -12 -24 0 -13 -6 -11 -25 11 -14 15 -31 27 -37 27 -6 0 -4 -8 5 -18
10 -10 14 -22 10 -25 -3 -4 0 -7 8 -7 20 0 34 -26 49 -90 7 -30 20 -63 29 -73
15 -18 14 -19 -34 -12 -44 6 -56 14 -101 62 -37 39 -53 50 -57 40 -3 -9 4 -19
19 -26 32 -14 30 -29 -3 -34 l-28 -4 29 -2 c16 0 44 -14 63 -31 24 -22 44 -30
71 -30 51 0 106 -17 134 -40 22 -18 22 -19 3 -20 -15 -1 -13 -4 9 -12 l29 -11
-38 -18 c-49 -24 -62 -24 -104 2 -18 11 -35 18 -38 16 -7 -8 40 -47 64 -53 29
-8 20 -24 -15 -25 -20 -1 -22 -3 -8 -6 10 -3 49 7 87 22 37 15 75 25 84 22 13
-6 15 -32 13 -214 l-3 -208 -40 -22 c-29 -16 -66 -24 -134 -29 -79 -6 -97 -11
-120 -31 l-26 -24 31 21 c17 12 42 20 55 18 22 -3 20 -5 -19 -27 -29 -17 -41
-30 -37 -41 3 -8 1 -30 -4 -48 -6 -18 -6 -30 -1 -27 5 3 11 19 15 35 7 34 39
60 72 60 31 0 30 -21 -7 -111 -16 -41 -23 -65 -15 -54 15 19 16 19 41 -10 l26
-30 -24 34 c-24 35 -24 35 -6 73 20 42 34 48 43 19 3 -11 13 -25 21 -32 14
-12 14 -8 0 26 -16 37 -16 40 1 53 17 13 16 14 -4 7 -18 -5 -23 -2 -23 13 0
11 8 22 18 25 9 3 42 15 72 26 66 25 60 25 60 3 0 -11 -10 -24 -22 -31 -22
-11 -22 -11 5 -6 35 7 34 -3 -3 -50 -16 -21 -29 -47 -29 -59 l2 -21 4 21 c2
12 15 32 29 45 l24 22 1 -39 c1 -21 5 -50 9 -64 7 -21 8 -18 9 19 1 37 3 42
15 31 8 -6 20 -27 26 -46 7 -20 14 -33 17 -31 7 7 -32 93 -46 101 -14 9 -14
113 0 122 19 11 34 -13 19 -31 -11 -13 -10 -15 2 -10 20 8 42 -20 35 -45 -3
-11 0 -20 6 -20 6 0 23 -15 39 -32 l28 -33 -3 30 c-2 17 -13 49 -26 73 -12 24
-21 48 -19 53 2 6 29 -7 61 -28 55 -37 57 -39 50 -73 -4 -19 -7 -46 -7 -60 -1
-14 -14 -38 -29 -55 -16 -16 -33 -39 -39 -50 -5 -11 11 3 36 30 27 29 46 44
46 34 0 -8 7 -24 16 -35 15 -18 15 -17 8 11 -16 71 -22 109 -17 122 9 22 40
14 73 -18 17 -17 34 -29 37 -26 3 4 -10 22 -30 42 -44 44 -21 48 44 6 43 -27
79 -79 79 -114 0 -8 8 -21 17 -28 15 -12 16 -12 9 6 -5 11 -14 35 -21 53 -21
58 -74 102 -151 123 -38 10 -78 28 -89 40 l-20 21 45 -7 c25 -4 53 -12 63 -17
10 -5 57 -11 104 -13 102 -5 120 -10 128 -36 4 -10 15 -24 26 -29 11 -6 26
-25 34 -43 l15 -32 -5 30 c-3 17 -20 42 -37 57 -44 38 -28 46 35 19 70 -30
100 -37 57 -12 -54 31 -146 59 -237 72 -46 6 -83 14 -83 16 0 5 95 -4 135 -12
11 -3 7 2 -10 10 -18 9 -57 14 -100 14 -83 -1 -118 6 -166 37 -47 29 -52 60
-43 276 8 192 3 186 98 142 31 -14 64 -23 74 -21 13 4 12 5 -5 6 -25 1 -42 21
-19 21 17 0 87 40 71 40 -5 0 -3 5 5 10 11 7 12 10 2 10 -8 0 -25 -9 -39 -20
-31 -24 -49 -25 -97 -5 -36 15 -41 34 -8 36 11 0 12 3 5 6 -41 16 18 48 113
61 38 5 74 7 79 4 6 -3 7 -1 2 3 -12 13 34 55 62 56 24 2 24 2 4 6 -30 6 -29
21 2 35 14 6 25 18 25 27 0 10 -23 -7 -56 -42 -40 -43 -61 -57 -75 -54 -10 3
-22 1 -25 -4 -3 -5 -17 -9 -31 -9 l-26 0 20 23 c11 12 23 42 27 67 8 52 30 90
52 90 8 0 12 5 9 10 -4 6 -1 18 7 27 11 14 11 16 -2 8 -8 -4 -25 -17 -37 -27
l-21 -20 -7 69 c-8 84 -11 93 -20 70z"/>
<path d="M3090 1984 c-51 -22 -70 -51 -70 -109 0 -61 15 -81 122 -160 50 -36
80 -67 87 -86 21 -61 -29 -117 -95 -104 -49 9 -81 46 -95 111 -7 30 -16 54
-21 54 -4 0 -8 -40 -8 -90 0 -82 9 -112 23 -75 5 12 11 12 44 -2 48 -20 137
-20 185 0 51 22 80 70 75 123 -6 54 -28 83 -106 136 -120 81 -148 131 -101
178 50 50 136 8 161 -81 l13 -44 8 74 c8 76 4 99 -13 69 -9 -16 -12 -16 -52 2
-50 23 -109 25 -157 4z"/>
<path d="M5600 1984 c-51 -22 -70 -51 -70 -109 0 -61 15 -80 121 -159 108 -79
127 -139 59 -180 -66 -38 -141 8 -161 101 -7 29 -16 53 -21 53 -4 0 -8 -40 -8
-90 0 -83 9 -112 24 -75 5 13 10 13 43 1 64 -24 90 -27 145 -15 73 16 118 61
118 119 0 61 -30 101 -120 162 -107 71 -135 123 -90 168 28 28 82 26 116 -4
16 -13 35 -45 44 -72 l17 -49 7 73 c8 75 2 100 -15 70 -9 -16 -12 -16 -52 2
-50 23 -109 25 -157 4z"/>
<path d="M6905 1981 c-47 -21 -70 -58 -69 -110 2 -51 26 -85 94 -131 91 -62
120 -95 120 -139 0 -60 -51 -92 -115 -71 -40 13 -71 58 -81 118 -11 72 -24 46
-24 -48 0 -83 9 -112 24 -75 4 12 10 13 25 6 73 -40 189 -30 245 19 27 25 31
34 31 82 0 68 -16 89 -123 164 -46 31 -87 65 -93 75 -28 53 7 109 67 109 45 0
87 -40 106 -101 l13 -44 5 75 c6 80 4 95 -11 68 -9 -16 -12 -16 -52 2 -53 24
-110 25 -162 1z"/>
<path d="M3413 1974 l27 -15 0 -197 c0 -202 -3 -222 -40 -235 -8 -3 17 -6 55
-6 69 0 69 0 38 14 l-33 14 0 193 1 193 91 -214 c106 -248 86 -248 179 0 33
90 65 173 70 184 4 12 7 -61 6 -175 l-2 -194 -25 -7 c-14 -4 25 -7 85 -7 61 0
101 3 90 5 -11 3 -23 10 -27 17 -4 6 -8 102 -8 213 l0 202 28 15 c26 15 24 15
-53 16 l-80 0 -59 -160 c-33 -89 -62 -157 -66 -153 -4 4 -36 77 -70 161 l-63
152 -86 0 c-82 -1 -85 -2 -58 -16z"/>
<path d="M4157 1898 c-20 -51 -56 -147 -82 -213 -28 -75 -55 -128 -71 -142
l-25 -23 73 1 c40 1 64 4 53 6 -49 12 -55 39 -29 117 l16 47 76 -3 75 -3 24
-64 c27 -71 25 -87 -9 -94 -13 -2 74 -4 192 -5 118 0 204 3 190 7 -24 7 -25
10 -28 109 l-3 102 35 0 c42 0 57 -23 76 -115 18 -92 20 -96 56 -111 39 -16
102 -6 124 21 11 13 8 14 -17 9 -29 -6 -30 -4 -42 43 -27 105 -34 117 -81 141
-24 12 -36 22 -27 22 10 0 35 11 57 25 51 32 69 84 47 137 -26 62 -59 72 -237
75 -145 3 -153 2 -127 -12 l27 -16 -2 -212 -3 -212 -28 -3 c-48 -6 -44 -14
-185 353 -33 87 -41 100 -64 103 -23 3 -28 -4 -61 -90z m551 58 c15 -15 33
-84 28 -106 -2 -8 -7 -27 -10 -41 -6 -28 -56 -59 -95 -59 -20 0 -21 5 -21 105
0 88 3 106 18 114 20 13 61 6 80 -13z"/>
<path d="M4913 1910 c1 -44 5 -80 9 -80 3 0 13 21 22 47 21 60 52 93 88 93
l28 0 -2 -217 -3 -218 -35 -6 c-19 -4 24 -6 95 -6 72 0 119 2 105 4 -47 8 -50
23 -50 240 l0 203 33 0 c40 0 69 -28 88 -85 21 -64 29 -63 29 1 0 32 3 69 6
82 l6 22 -210 0 -211 0 2 -80z"/>
<path d="M5923 1974 l27 -15 0 -210 c0 -208 0 -210 -22 -219 -15 -6 41 -9 162
-9 l185 -1 -4 77 c-3 75 -4 77 -17 48 -7 -16 -13 -35 -14 -42 0 -6 -14 -26
-31 -43 -29 -28 -36 -31 -88 -28 l-56 3 -3 108 c-3 116 -2 118 51 98 16 -6 30
-24 38 -45 7 -20 16 -36 20 -36 3 0 6 43 5 95 -1 93 -8 117 -20 73 -10 -37
-31 -57 -65 -64 l-32 -7 3 104 3 104 53 3 c68 4 97 -14 113 -70 20 -71 29 -66
29 15 l0 77 -182 0 c-168 -1 -181 -2 -155 -16z"/>
<path d="M6353 1974 l27 -15 0 -197 c0 -202 -3 -222 -40 -235 -8 -3 17 -6 55
-6 67 0 69 0 39 13 -28 12 -32 20 -37 67 -10 78 -8 269 1 269 5 0 40 -39 77
-87 172 -220 217 -273 231 -273 12 0 14 32 14 194 0 218 5 256 32 263 40 11
15 23 -48 23 -41 0 -63 -4 -59 -10 3 -5 15 -10 26 -10 12 0 23 -10 29 -26 12
-30 14 -264 3 -263 -5 0 -37 37 -73 82 -36 44 -91 114 -124 154 l-58 73 -62 0
c-60 -1 -60 -1 -33 -16z"/>
<path d="M7210 1985 c0 -3 11 -10 25 -15 l25 -10 0 -202 c0 -112 -4 -208 -8
-214 -4 -7 -16 -14 -27 -17 -11 -2 64 -5 168 -6 l187 -1 0 75 c0 43 -4 75 -10
75 -5 0 -10 -9 -10 -20 0 -36 -38 -97 -68 -109 -16 -7 -49 -11 -73 -9 l-44 3
-3 108 c-3 103 -2 107 18 107 25 0 80 -51 80 -74 0 -9 5 -16 11 -16 6 0 8 7 5
16 -3 9 -6 52 -6 97 l-1 82 -20 -37 c-20 -38 -45 -58 -74 -58 -14 0 -15 14
-13 103 l3 102 53 3 c69 4 95 -13 112 -72 7 -25 17 -46 21 -46 5 0 9 32 9 70
l0 70 -180 0 c-99 0 -180 -2 -180 -5z"/>
</g>
</svg>
